Coordinates
version=1
nRows=9
nColumns=24
inDegrees=yes

Units are S.I. units (second, meters, Newtons, ...)
Angles are in degrees.

endheader
time	pelvis_tilt	pelvis_list	pelvis_rotation	pelvis_tx	pelvis_ty	pelvis_tz	hip_flexion_r	hip_adduction_r	hip_rotation_r	knee_angle_r	ankle_angle_r	subtalar_angle_r	mtp_angle_r	hip_flexion_l	hip_adduction_l	hip_rotation_l	knee_angle_l	ankle_angle_l	subtalar_angle_l	mtp_angle_l	lumbar_extension	lumbar_bending	lumbar_rotation
      0.52500000	     -0.93363367	      6.67554327	     -3.98666284	     -0.84119418	      1.05920762	      0.36136045	     23.71921693	     -1.64655459	     -6.46778740	      0.44148100	     -1.74252751	     -0.62142147	     -0.00013508	    -14.82543577	     12.59004429	      0.81460993	     -1.62702961	      3.90917612	     -7.66373212	     -0.27298246	      4.67711498	     -4.12678667	      0.58994307
      0.52916667	     -0.95540458	      6.66984122	     -4.03300894	     -0.83550963	      1.05875373	      0.36148360	     23.68329063	     -1.56717976	     -6.43287524	      0.27170868	     -1.75481379	     -0.59756374	      0.00408671	    -14.92542146	     12.60142879	      0.87425645	     -2.02011888	      3.90654806	     -7.69384417	     -0.28639262	      4.72474461	     -4.08289046	      0.57637998
      0.53333333	     -0.96899246	      6.65887130	     -4.08047566	     -0.82978305	      1.05833358	      0.36156405	     23.63893320	     -1.49101040	     -6.37080705	      0.04361720	     -1.77460139	     -0.58445416	      0.00889967	    -15.02908857	     12.61045177	      0.94869011	     -2.42277005	      3.89905463	     -7.73736863	     -0.29965158	      4.77789839	     -4.03364936	      0.56615795
      0.53750000	     -0.97676787	      6.64493526	     -4.12549270	     -0.82399686	      1.05796999	      0.36161982	     23.58403177	     -1.42133229	     -6.28426070	     -0.22757667	     -1.80806563	     -0.58206551	      0.01331811	    -15.11081289	     12.61544607	      1.02687382	     -2.88867012	      3.88448371	     -7.78768615	     -0.31027754	      4.83014811	     -3.97962882	      0.55996853
      0.54166667	     -0.98316428	      6.63041386	     -4.17054229	     -0.81818703	      1.05762390	      0.36163255	     23.52860625	     -1.36054316	     -6.17037222	     -0.54033132	     -1.86301756	     -0.59281280	      0.01803533	    -15.18431946	     12.62140022	      1.10771501	     -3.37328995	      3.85932585	     -7.84562216	     -0.32033909	      4.88296198	     -3.91499894	      0.55485803
      0.54583333	     -0.98669549	      6.61153338	     -4.21514085	     -0.81235648	      1.05730423	      0.36162262	     23.46602104	     -1.30321982	     -6.03034009	     -0.88116881	     -1.94656115	     -0.61741776	      0.02295514	    -15.24964217	     12.62340387	      1.18244493	     -3.87813220	      3.81557291	     -7.90926036	     -0.32974882	      4.93439676	     -3.84174958	      0.55080481
      0.55000000	     -0.98631235	      6.59119035	     -4.25823200	     -0.80649992	      1.05702349	      0.36158890	     23.39421923	     -1.25369347	     -5.86124273	     -1.24109310	     -2.06890351	     -0.65925369	      0.02833469	    -15.29474162	     12.62222398	      1.23965126	     -4.42925524	      3.75175607	     -7.98023526	     -0.33866501	      4.98400880	     -3.75556658	      0.54734625
      0.55416667	     -1.04115256	      6.57126062	     -4.43899054	     -0.80056309	      1.05661196	      0.36174826	     23.38091530	     -1.14906503	     -5.37104466	     -1.57863837	     -2.63930178	     -1.02674318	      0.05569941	    -15.27134902	     12.65097943	      1.19113182	     -4.95217034	      3.48593564	     -8.26182781	     -0.37609071	      4.96282189	     -3.60733554	      0.56667805
      0.55833333	     -1.00813548	      6.51901708	     -4.44463347	     -0.79461069	      1.05649470	      0.36165494	     23.24502111	     -1.09858500	     -5.25476751	     -1.94596746	     -2.71062112	     -1.07941496	      0.06129068	    -15.31575610	     12.60290382	      1.22269376	     -5.58386617	      3.41635633	     -8.28489635	     -0.37938588	      5.06737421	     -3.56166162	      0.58146320
